<svg width="86" height="78" viewBox="0 0 86 78" fill="none" xmlns="http://www.w3.org/2000/svg">
<rect x="0.510742" y="0.5" width="84.3965" height="59.5917" rx="3.5" stroke="#05C2DF"/>
<line x1="0.0107422" y1="50.1509" x2="85.4072" y2="50.1509" stroke="#05C2DF"/>
<line x1="38.5215" y1="55.3579" x2="46.3736" y2="55.3579" stroke="#05C2DF" stroke-linecap="round"/>
<rect x="25.5049" y="60.6182" width="33.8876" height="5.15385" stroke="#05C2DF"/>
<rect x="15.0908" y="71.9795" width="54.716" height="5.15385" stroke="#05C2DF"/>
<path d="M16.4198 71.4527L25.1417 66.2988H59.7559L68.4778 71.4527H16.4198Z" stroke="#05C2DF"/>
<path d="M23.2674 12.3074L31.2674 34.671H31.3583L39.3583 12.3074H40.131L31.8129 35.5801H30.8129L22.4947 12.3074H23.2674ZM44.8043 35.5801V12.3074H51.6225C52.9255 12.3074 54.0771 12.5839 55.0771 13.1369C56.0846 13.6899 56.8725 14.4627 57.4407 15.4551C58.0165 16.4475 58.3043 17.6104 58.3043 18.9437C58.3043 20.2619 58.0165 21.4172 57.4407 22.4096C56.8725 23.3945 56.0846 24.1634 55.0771 24.7164C54.0771 25.2619 52.9255 25.5346 51.6225 25.5346H45.168V24.8074H51.6225C52.7892 24.8074 53.8195 24.5649 54.7134 24.0801C55.6074 23.5952 56.3081 22.9134 56.8157 22.0346C57.3233 21.1558 57.5771 20.1255 57.5771 18.9437C57.5771 17.7543 57.3233 16.7164 56.8157 15.8301C56.3081 14.9437 55.6074 14.2581 54.7134 13.7733C53.8195 13.2808 52.7892 13.0346 51.6225 13.0346H45.5316V35.5801H44.8043ZM53.668 24.9892L59.3952 35.5801H58.5771L52.8498 24.9892H53.668Z" fill="#05C2DF"/>
</svg>
