<svg width="81" height="80" viewBox="0 0 81 80" fill="none" xmlns="http://www.w3.org/2000/svg">
<path d="M36.8612 27.0792V20.0688M53.4935 34.3644H61.6034M23.8027 44.8111H28.2014M45.7959 59.519V52.5087" stroke="#05C2DF"/>
<rect x="28.5645" y="27.4414" width="24.567" height="24.567" rx="3.5" stroke="#05C2DF"/>
<rect x="33.2373" y="32.1152" width="15.4948" height="15.4948" rx="3.5" stroke="#05C2DF"/>
<rect x="61.8291" y="0.5" width="18.5189" height="18.5189" rx="3.5" stroke="#05C2DF"/>
<rect x="66.2275" y="4.89844" width="9.99656" height="9.99656" rx="2.5" stroke="#05C2DF"/>
<rect x="1.34766" y="0.5" width="18.5189" height="18.5189" rx="3.5" stroke="#05C2DF"/>
<rect x="5.74609" y="4.89844" width="9.99656" height="9.99656" rx="2.5" stroke="#05C2DF"/>
<rect x="2.17285" y="60.4312" width="18.5189" height="18.5189" rx="3.5" stroke="#05C2DF"/>
<rect x="6.57129" y="64.8301" width="9.99656" height="9.99656" rx="2.5" stroke="#05C2DF"/>
<rect x="61.8291" y="60.4312" width="18.5189" height="18.5189" rx="3.5" stroke="#05C2DF"/>
<rect x="66.2275" y="64.8301" width="9.99656" height="9.99656" rx="2.5" stroke="#05C2DF"/>
<path d="M46.0713 27.0791V9.89697H61.1916" stroke="#05C2DF"/>
<path d="M28.2012 37.1133L10.7441 37.1133L10.7442 19.5188" stroke="#05C2DF"/>
<path d="M53.6313 40.9624L70.8135 40.9624L70.8135 59.9315" stroke="#05C2DF"/>
<path d="M37.4111 52.5088L37.4111 69.6909L21.0537 69.6909" stroke="#05C2DF"/>
<circle cx="36.8609" cy="17.5943" r="1.97423" stroke="#05C2DF"/>
<circle cx="64.0777" cy="34.3644" r="1.97423" stroke="#05C2DF"/>
<circle cx="21.4664" cy="44.8111" r="1.97423" stroke="#05C2DF"/>
<circle cx="45.6588" cy="61.8556" r="1.97423" stroke="#05C2DF"/>
</svg>
